<svg width="1790" height="1053" viewBox="0 0 1790 1053" fill="none" xmlns="http://www.w3.org/2000/svg"><mask id="a" maskUnits="userSpaceOnUse" x="902" y="0" width="774" height="1053"><path fill="#fff" d="M902.217 0h773.494v1052.01H902.217z"/></mask><g mask="url(#a)"><path fill-rule="evenodd" clip-rule="evenodd" d="M1652.92 976.969l-1.74-1.738 5.47-5.477 1.74 1.738-5.47 5.477zm5.77 1.443l-1.74-1.737 5.48-5.478 1.74 1.738-5.48 5.477zm-69.27 62.058l-1.74-1.74 5.48-5.48 1.74 1.74-5.48 5.48zm5.77 1.44l-1.73-1.74 5.47-5.48 1.74 1.74-5.48 5.48z" fill="#F2963E"/><path fill-rule="evenodd" clip-rule="evenodd" d="M1529.48 976.15h2.41l1.2-2.067-1.2-2.066h-2.41l-1.21 2.066 1.21 2.067zm3.73 2.262h-5.05l-2.53-4.329 2.53-4.329h5.05l2.52 4.329-2.52 4.329zm-68.67 61.238h2.41l1.2-2.07-1.2-2.07h-2.41l-1.21 2.07 1.21 2.07zm3.73 2.26h-5.05l-2.53-4.33 2.53-4.33h5.05l2.52 4.33-2.52 4.33z" fill="#4BBB81"/><path fill-rule="evenodd" clip-rule="evenodd" d="M1403.72 972.148v2.428l2.08-1.214-2.08-1.214zm-2.2 6.264v-10.101l8.66 5.051-8.66 5.05zm126.3 58.678v2.42l2.08-1.21-2.08-1.21zm-2.19 6.26v-10.1l8.66 5.05-8.66 5.05zm97.44-38.01v2.43l2.08-1.22-2.08-1.21zm-2.2 6.26v-10.1l8.66 5.05-8.66 5.05z" fill="#F35D58"/><path fill-rule="evenodd" clip-rule="evenodd" d="M1589.12 975.526h11.55v-2.886h-11.55v2.886z" fill="#4BBB81"/><path fill-rule="evenodd" clip-rule="evenodd" d="M1492.44 1011.6h2.89v-11.54h-2.89v11.54zm5.77 0h2.89v-11.54h-2.89v11.54z" fill="#F2963E"/><path fill-rule="evenodd" clip-rule="evenodd" d="M1565.27 1009.04c-1.97 0-3.83-.77-5.22-2.17a5.05 5.05 0 0 0-3.6-1.48c-1.36 0-2.63.52-3.59 1.48l-1.63-1.62a7.314 7.314 0 0 1 5.22-2.17c1.97 0 3.83.77 5.22 2.17a5.05 5.05 0 0 0 3.6 1.48c1.36 0 2.63-.52 3.59-1.48l1.63 1.62a7.314 7.314 0 0 1-5.22 2.17m-159.11 31.62c-1.97 0-3.83-.77-5.22-2.16a5.06 5.06 0 0 0-3.6-1.49c-1.35 0-2.63.53-3.59 1.49l-1.63-1.63a7.304 7.304 0 0 1 5.22-2.16c1.98 0 3.83.76 5.23 2.16.96.96 2.23 1.49 3.59 1.49 1.36 0 2.64-.53 3.6-1.49l1.63 1.63a7.369 7.369 0 0 1-5.23 2.16" fill="#F35D58"/><mask id="b" maskUnits="userSpaceOnUse" x="902" y="645" width="894" height="623"><path fill-rule="evenodd" clip-rule="evenodd" d="M902.217 1267.03h893.723V645.107H902.217v621.923z" fill="#fff"/></mask><g mask="url(#b)" fill-rule="evenodd" clip-rule="evenodd"><path d="M1363.12 1007.21h11.27v-2.3h-11.27v2.3z" fill="#4BBB81"/><path d="M1433.7 1005.14c-.5 0-.91.42-.91.92s.41.92.91.92c.51 0 .92-.42.92-.92s-.41-.92-.92-.92m0 4.14a3.23 3.23 0 0 1-3.22-3.22 3.23 3.23 0 0 1 3.22-3.22c1.78 0 3.22 1.45 3.22 3.22 0 1.77-1.44 3.22-3.22 3.22m224.2 27.49a.915.915 0 1 0-.01 1.83.915.915 0 0 0 .01-1.83m0 4.13c-1.78 0-3.22-1.44-3.22-3.22 0-1.77 1.44-3.22 3.22-3.22a3.23 3.23 0 0 1 3.22 3.22c0 1.78-1.45 3.22-3.22 3.22m-192.11-67.575c-.51 0-.92.411-.92.916a.915.915 0 1 0 .92-.916m0 4.134a3.22 3.22 0 0 1-3.22-3.218 3.22 3.22 0 0 1 3.22-3.219c1.77 0 3.21 1.444 3.21 3.219a3.218 3.218 0 0 1-3.21 3.218m-269.17-.777l-1.63-1.628 5.14-5.13 1.62 1.629-5.13 5.129zm6.49 1.875l-1.63-1.628 5.13-5.129 1.63 1.627-5.13 5.13zm24.74 29.943l-1.63-1.63 5.13-5.13 1.63 1.63-5.13 5.13zm6.48 1.88l-1.62-1.63 5.13-5.13 1.63 1.63-5.14 5.13zm-101.55 29.74l-1.63-1.62 5.13-5.13 1.63 1.62-5.13 5.13zm6.49 1.88l-1.63-1.63 5.13-5.13 1.63 1.63-5.13 5.13z" fill="#F2963E"/><path d="M1073.2 976.344h2.43l1.21-2.103-1.21-2.104h-2.43l-1.22 2.104 1.22 2.103zm3.76 2.303h-5.09l-2.55-4.406 2.55-4.407h5.09l2.54 4.407-2.54 4.406zm-68.47 61.143h2.43l1.21-2.11-1.21-2.1h-2.43l-1.22 2.1 1.22 2.11zm3.75 2.3h-5.08l-2.55-4.41 2.55-4.4h5.08l2.55 4.4-2.55 4.41zm283.43-33.93h2.43l1.21-2.1-1.21-2.1h-2.43l-1.22 2.1 1.22 2.1zm3.76 2.31h-5.09l-2.55-4.41 2.55-4.41h5.09l2.54 4.41-2.54 4.41z" fill="#4BBB81"/><path d="M946.445 972.98v2.523l2.184-1.262-2.184-1.261zm-2.304 6.509v-10.496l9.093 5.248-9.093 5.248zm128.029 56.931v2.52l2.18-1.26-2.18-1.26zm-2.3 6.51v-10.5l9.09 5.25-9.09 5.25zm96.75-38.13v2.52l2.19-1.26-2.19-1.26zm-2.3 6.51v-10.5l9.1 5.25-9.1 5.25z" fill="#F35D58"/><path d="M1132.74 975.392h11.27v-2.303h-11.27v2.303z" fill="#4BBB81"/><path d="M1036.76 1011.7h2.31v-11.28h-2.31v11.28zm5.64 0h2.31v-11.28h-2.31v11.28zm218.81-31.821h2.3v-11.275h-2.3v11.275zm5.64 0h2.3v-11.275h-2.3v11.275zm59.06 63.441h2.3v-11.27h-2.3v11.27zm5.64 0h2.31v-11.27h-2.31v11.27z" fill="#F2963E"/><path d="M1109.18 1009.04c-1.97 0-3.83-.77-5.22-2.17a5.05 5.05 0 0 0-3.6-1.48c-1.35 0-2.63.52-3.59 1.48l-1.63-1.62a7.33 7.33 0 0 1 5.22-2.17c1.98 0 3.83.77 5.23 2.17.96.96 2.23 1.48 3.59 1.48 1.36 0 2.64-.52 3.6-1.48l1.62 1.62a7.314 7.314 0 0 1-5.22 2.17m225.45-31.822c-1.97 0-3.83-.769-5.22-2.164a5.063 5.063 0 0 0-3.6-1.488 5.04 5.04 0 0 0-3.59 1.488l-1.63-1.627a7.327 7.327 0 0 1 5.22-2.162c1.97 0 3.83.767 5.22 2.162.96.96 2.24 1.488 3.6 1.488 1.36 0 2.63-.528 3.59-1.488l1.63 1.627a7.329 7.329 0 0 1-5.22 2.164m-384.556 63.442a7.36 7.36 0 0 1-5.224-2.16 5.049 5.049 0 0 0-3.595-1.49c-1.357 0-2.635.53-3.595 1.49l-1.627-1.63a7.31 7.31 0 0 1 5.222-2.16c1.974 0 3.829.76 5.224 2.16a5.05 5.05 0 0 0 3.595 1.49c1.358 0 2.633-.53 3.595-1.49l1.627 1.63a7.352 7.352 0 0 1-5.222 2.16" fill="#F35D58"/><path d="M907.029 1007.21h11.278v-2.3h-11.278v2.3zm352.801 31.62h11.28v-2.3h-11.28v2.3z" fill="#4BBB81"/><path d="M977.615 1005.14a.924.924 0 0 0-.916.92c0 .5.412.92.916.92.506 0 .916-.42.916-.92s-.41-.92-.916-.92m0 4.14a3.227 3.227 0 0 1-3.219-3.22c0-1.77 1.445-3.22 3.219-3.22a3.227 3.227 0 0 1 3.219 3.22c0 1.77-1.444 3.22-3.219 3.22m224.195 27.49c-.5 0-.92.41-.92.91 0 .51.42.92.92.92a.915.915 0 0 0 0-1.83m0 4.13c-1.77 0-3.22-1.44-3.22-3.22a3.23 3.23 0 0 1 3.22-3.22c1.78 0 3.22 1.45 3.22 3.22 0 1.78-1.44 3.22-3.22 3.22m-192.11-67.575c-.5 0-.92.411-.92.916 0 .505.42.916.92.916.51 0 .92-.411.92-.916a.917.917 0 0 0-.92-.916m0 4.134a3.226 3.226 0 0 1-3.22-3.218 3.227 3.227 0 0 1 3.22-3.219 3.22 3.22 0 0 1 3.22 3.219 3.22 3.22 0 0 1-3.22 3.218m643.01-324.273l-1.63-1.629 5.13-5.129 1.63 1.628-5.13 5.13zm6.49 1.874l-1.63-1.627 5.13-5.13 1.63 1.628-5.13 5.129zm-70.33 61.568l-1.63-1.628 5.13-5.129 1.63 1.627-5.13 5.13zm6.48 1.875l-1.63-1.628 5.14-5.129 1.63 1.627-5.14 5.13zm57.79 62.531l-1.63-1.629 5.13-5.129 1.63 1.628-5.13 5.13zm6.49 1.875l-1.63-1.628 5.13-5.13 1.63 1.629-5.13 5.129zm-103.76 93.417l-1.63-1.627 5.13-5.129 1.63 1.627-5.13 5.129zm6.48 1.876l-1.63-1.628 5.14-5.13 1.63 1.628-5.14 5.13zm-101.56 30.122l-1.63-1.628 5.14-5.13 1.62 1.628-5.13 5.13zm6.49 1.875l-1.63-1.628 5.13-5.13 1.63 1.628-5.13 5.13zm-70.66-65.749l-1.63-1.627 5.13-5.129 1.63 1.627-5.13 5.129zm6.49 1.876l-1.63-1.629 5.13-5.129 1.63 1.628-5.13 5.13zm24.68 94.011l-1.63-1.628 5.14-5.129 1.62 1.627-5.13 5.13zm6.49 1.875l-1.63-1.628 5.13-5.13 1.63 1.629-5.13 5.129zm-70.52-193.474l-1.63-1.629 5.13-5.129 1.63 1.628-5.13 5.13zm6.49 1.875l-1.63-1.628 5.13-5.13 1.63 1.628-5.13 5.13z" fill="#F2963E"/><path d="M1529.29 652.848h2.43l1.21-2.103-1.21-2.104h-2.43l-1.22 2.104 1.22 2.103zm3.76 2.303h-5.09l-2.55-4.406 2.55-4.407h5.09l2.54 4.407-2.54 4.406zm-68.48 61.139h2.43l1.22-2.104-1.22-2.103h-2.43l-1.21 2.103 1.21 2.104zm3.76 2.303h-5.08l-2.55-4.407 2.55-4.405h5.08l2.55 4.405-2.55 4.407zm-100.65 93.297h2.43l1.21-2.103-1.21-2.104h-2.43l-1.22 2.104 1.22 2.103zm3.75 2.303h-5.08l-2.55-4.406 2.55-4.406h5.08l2.55 4.406-2.55 4.406zm252.85-65.792h2.43l1.22-2.104-1.22-2.103h-2.43l-1.21 2.103 1.21 2.104zm3.76 2.301h-5.09l-2.54-4.405 2.54-4.406h5.09l2.55 4.406-2.55 4.405zm-34.79 93.412h2.43l1.21-2.104-1.21-2.104h-2.43l-1.22 2.104 1.22 2.104zm3.76 2.302h-5.09l-2.54-4.406 2.54-4.406h5.09l2.54 4.406-2.54 4.406z" fill="#4BBB81"/><path d="M1402.53 649.484v2.522l2.19-1.262-2.19-1.26zm-2.3 6.509v-10.497l9.09 5.248-9.09 5.249zm31.41 216.631v2.523l2.18-1.261-2.18-1.262zm-2.31 6.51v-10.496l9.1 5.248-9.1 5.248zm98.93-166.209v2.523l2.18-1.262-2.18-1.261zm-2.31 6.51v-10.497l9.1 5.248-9.1 5.249zm-30.55 217.199v2.523l2.18-1.261-2.18-1.262zm-2.31 6.51v-10.496l9.1 5.248-9.1 5.248zm98.59-165.813v2.523l2.18-1.262-2.18-1.261zm-2.3 6.51v-10.497l9.09 5.248-9.09 5.249zm33.33-102.539v2.522l2.19-1.26-2.19-1.262zm-2.3 6.51v-10.496l9.09 5.248-9.09 5.248z" fill="#F35D58"/><path d="M1588.82 651.895h11.28v-2.303h-11.28v2.303zm-97.72 95.552h11.28v-2.302h-11.28v2.302zm-62.89 63.49h11.28v-2.302h-11.28v2.302zm-32.47 96.096h11.28v-2.301h-11.28v2.301zm223.51-31.995h11.28v-2.303h-11.28v2.303zm-95.55-31.876h11.28v-2.303h-11.28v2.303zm31.53 95.886h11.28v-2.303h-11.28v2.303z" fill="#4BBB81"/><path d="M1492.85 688.2h2.31v-11.274h-2.31V688.2zm5.64 0h2.31v-11.274h-2.31V688.2zm26.88 96.03h2.3v-11.274h-2.3v11.274zm5.64 0h2.3v-11.274h-2.3v11.274zm25.88 31.194h2.3v-11.275h-2.3v11.275zm5.64 0h2.3v-11.275h-2.3v11.275zm91.53 96.095h2.31v-11.274h-2.31v11.274zm5.64 0h2.3v-11.274h-2.3v11.274zm-230.88-159.586h2.3v-11.274h-2.3v11.274zm5.64 0h2.3v-11.274h-2.3v11.274zm27.37 95.715h2.3v-11.275h-2.3v11.275zm5.64 0h2.3v-11.275h-2.3v11.275z" fill="#F2963E"/><path d="M1565.27 685.54c-1.97 0-3.83-.767-5.22-2.163a5.063 5.063 0 0 0-3.6-1.488 5.04 5.04 0 0 0-3.59 1.488l-1.63-1.627a7.323 7.323 0 0 1 5.22-2.163c1.97 0 3.83.767 5.22 2.163.96.96 2.24 1.488 3.6 1.488 1.36 0 2.63-.528 3.59-1.488l1.63 1.627a7.323 7.323 0 0 1-5.22 2.163m97.85 159.446c-1.97 0-3.83-.767-5.22-2.163a5.063 5.063 0 0 0-3.6-1.488c-1.35 0-2.63.529-3.59 1.488l-1.63-1.627a7.34 7.34 0 0 1 5.22-2.163c1.98 0 3.83.767 5.23 2.163.96.96 2.24 1.488 3.59 1.488 1.36 0 2.64-.528 3.6-1.488l1.63 1.627a7.346 7.346 0 0 1-5.23 2.163m-161.07 31.876c-1.98 0-3.83-.767-5.23-2.163a5.04 5.04 0 0 0-3.59-1.488c-1.36 0-2.64.529-3.6 1.488l-1.62-1.627a7.306 7.306 0 0 1 5.22-2.163c1.97 0 3.83.767 5.22 2.163.96.96 2.24 1.488 3.6 1.488 1.36 0 2.63-.528 3.59-1.488l1.63 1.627a7.323 7.323 0 0 1-5.22 2.163m-129.7 64.01a7.35 7.35 0 0 1-5.23-2.162 5.036 5.036 0 0 0-3.59-1.489 5.06 5.06 0 0 0-3.6 1.489l-1.63-1.629a7.353 7.353 0 0 1 5.23-2.161c1.97 0 3.83.767 5.22 2.161.96.962 2.24 1.49 3.6 1.49 1.35 0 2.63-.528 3.59-1.49l1.63 1.629a7.327 7.327 0 0 1-5.22 2.162m33.81-223.709a7.33 7.33 0 0 1-5.22-2.162 5.06 5.06 0 0 0-3.6-1.49c-1.35 0-2.63.53-3.59 1.49l-1.63-1.629a7.33 7.33 0 0 1 5.22-2.161c1.98 0 3.83.767 5.23 2.161.96.96 2.23 1.488 3.59 1.488 1.36 0 2.64-.528 3.6-1.488l1.63 1.629a7.354 7.354 0 0 1-5.23 2.162m64.85 64.406c-1.97 0-3.82-.768-5.22-2.163a5.063 5.063 0 0 0-3.6-1.488c-1.35 0-2.63.529-3.59 1.488l-1.63-1.628a7.348 7.348 0 0 1 5.22-2.162c1.98 0 3.83.768 5.23 2.162.96.96 2.24 1.488 3.59 1.488 1.36 0 2.64-.528 3.6-1.488l1.63 1.628a7.35 7.35 0 0 1-5.23 2.163m159.11 31.195c-1.97 0-3.83-.769-5.22-2.163a5.06 5.06 0 0 0-3.6-1.489c-1.36 0-2.63.529-3.59 1.489l-1.63-1.628a7.327 7.327 0 0 1 5.22-2.162c1.98 0 3.83.767 5.23 2.162.96.96 2.23 1.488 3.59 1.488 1.36 0 2.63-.528 3.6-1.488l1.62 1.628a7.332 7.332 0 0 1-5.22 2.163m-32.66 96.095c-1.98 0-3.83-.767-5.23-2.163a5.04 5.04 0 0 0-3.59-1.488c-1.36 0-2.64.529-3.6 1.488l-1.62-1.628a7.33 7.33 0 0 1 5.22-2.162c1.97 0 3.83.768 5.22 2.162a5.06 5.06 0 0 0 3.6 1.489c1.36 0 2.63-.529 3.59-1.489l1.63 1.628a7.323 7.323 0 0 1-5.22 2.163" fill="#F35D58"/><path d="M1363.12 683.715h11.27v-2.303h-11.27v2.303z" fill="#4BBB81"/><path d="M1433.7 681.647a.916.916 0 1 0 .012 1.832.916.916 0 0 0-.012-1.832m0 4.135a3.226 3.226 0 0 1-3.22-3.218 3.227 3.227 0 0 1 3.22-3.219 3.22 3.22 0 0 1 3.22 3.219 3.22 3.22 0 0 1-3.22 3.218m-64.95 187.187c-.5 0-.92.412-.92.917 0 .505.42.915.92.915a.917.917 0 1 0 0-1.832m0 4.135a3.226 3.226 0 0 1-3.22-3.218 3.227 3.227 0 0 1 3.22-3.219 3.22 3.22 0 0 1 3.22 3.219 3.22 3.22 0 0 1-3.22 3.218m33-99.427a.915.915 0 1 0 .92.916.917.917 0 0 0-.92-.916m0 4.134a3.226 3.226 0 0 1-3.22-3.218 3.227 3.227 0 0 1 3.22-3.219 3.22 3.22 0 0 1 3.22 3.219 3.22 3.22 0 0 1-3.22 3.218m256.15-68.54a.917.917 0 1 0 0 1.832.915.915 0 0 0 0-1.832m0 4.134a3.22 3.22 0 0 1-3.22-3.218 3.22 3.22 0 0 1 3.22-3.219c1.77 0 3.22 1.444 3.22 3.219a3.227 3.227 0 0 1-3.22 3.218m-32.77 219.575a.915.915 0 1 0 .01 1.83.915.915 0 0 0-.01-1.83m0 4.135a3.227 3.227 0 0 1-3.22-3.218 3.227 3.227 0 0 1 3.22-3.219 3.22 3.22 0 0 1 3.22 3.219 3.22 3.22 0 0 1-3.22 3.218m-65.18-195.735a.916.916 0 0 0 0 1.832.916.916 0 0 0 0-1.832m0 4.135a3.22 3.22 0 0 1-3.22-3.218 3.22 3.22 0 0 1 3.22-3.218 3.218 3.218 0 0 1 0 6.436m-63.13 59.356a.916.916 0 1 0 .92.916.917.917 0 0 0-.92-.916m0 4.134a3.218 3.218 0 0 1-3.21-3.218 3.218 3.218 0 0 1 3.21-3.219 3.22 3.22 0 0 1 3.22 3.219 3.22 3.22 0 0 1-3.22 3.218" fill="#F2963E"/><path d="M1530.24 904.643c-.73 0-1.33.557-1.33 1.24 0 .683.6 1.239 1.33 1.239.74 0 1.33-.556 1.33-1.239s-.59-1.24-1.33-1.24m0 5.593c-2.58 0-4.68-1.952-4.68-4.353s2.1-4.355 4.68-4.355c2.58 0 4.68 1.954 4.68 4.355 0 2.401-2.1 4.353-4.68 4.353" fill="#4BBB81"/><path d="M1465.79 649.828a.918.918 0 1 0 0 1.833.916.916 0 0 0 0-1.833m0 4.135a3.22 3.22 0 0 1-3.22-3.218 3.22 3.22 0 0 1 3.22-3.219c1.77 0 3.21 1.444 3.21 3.219a3.218 3.218 0 0 1-3.21 3.218m-269.17-.777l-1.63-1.629 5.14-5.129 1.62 1.628-5.13 5.13zm6.49 1.874l-1.63-1.627 5.13-5.13 1.63 1.628-5.13 5.129zm24.74 29.944l-1.63-1.627 5.13-5.13 1.63 1.628-5.13 5.129zm6.48 1.875l-1.62-1.628 5.13-5.129 1.63 1.628-5.14 5.129zm-101.55 29.749l-1.63-1.628 5.13-5.129 1.63 1.627-5.13 5.13zm6.49 1.875l-1.63-1.628 5.13-5.129 1.63 1.627-5.13 5.13zm57.78 62.531l-1.63-1.629 5.13-5.129 1.63 1.628-5.13 5.13zm6.49 1.875l-1.63-1.628 5.13-5.13 1.63 1.629-5.13 5.129zm-103.76 93.417l-1.63-1.627 5.13-5.129 1.63 1.627-5.13 5.129zm6.48 1.876l-1.62-1.628 5.13-5.13 1.63 1.628-5.14 5.13zm-101.56 30.122l-1.62-1.628 5.13-5.13 1.63 1.628-5.14 5.13zm6.49 1.875l-1.63-1.628 5.14-5.13 1.63 1.628-5.14 5.13zm-70.657-65.749l-1.628-1.627 5.131-5.129 1.628 1.627-5.131 5.129zm6.487 1.876l-1.628-1.629 5.132-5.129 1.629 1.628-5.133 5.13zm345-34.098l-1.63-1.628 5.13-5.13 1.63 1.628-5.13 5.13zm6.49 1.874l-1.63-1.627 5.13-5.13 1.63 1.628-5.13 5.129zM971.703 940.337l-1.629-1.628 5.131-5.129 1.629 1.627-5.131 5.13zm6.488 1.875l-1.628-1.628 5.133-5.13 1.627 1.629-5.132 5.129zm-70.519-193.474l-1.629-1.629 5.131-5.129 1.629 1.628-5.131 5.13zm6.488 1.875l-1.629-1.628 5.134-5.13 1.627 1.628-5.132 5.13z" fill="#F2963E"/><path d="M1073.2 652.848h2.43l1.21-2.103-1.21-2.104h-2.43l-1.22 2.104 1.22 2.103zm3.76 2.303h-5.09l-2.55-4.406 2.55-4.407h5.09l2.54 4.407-2.54 4.406zm-68.47 61.139h2.43l1.21-2.104-1.21-2.103h-2.43l-1.22 2.103 1.22 2.104zm3.75 2.303h-5.08l-2.55-4.407 2.55-4.405h5.08l2.55 4.405-2.55 4.407zM1295.67 940h2.43l1.21-2.104-1.21-2.103h-2.43l-1.22 2.103 1.22 2.104zm3.76 2.302h-5.09l-2.55-4.406 2.55-4.406h5.09l2.54 4.406-2.54 4.406zM911.588 811.89h2.431l1.214-2.103-1.214-2.104h-2.431l-1.215 2.104 1.215 2.103zm3.759 2.303h-5.087l-2.546-4.406 2.546-4.406h5.087l2.544 4.406-2.544 4.406zm380.323-129.526h2.43l1.21-2.103-1.21-2.104h-2.43l-1.22 2.104 1.22 2.103zm3.76 2.303h-5.09l-2.55-4.406 2.55-4.407h5.09l2.54 4.407-2.54 4.406zm-131.24 61.431h2.43l1.22-2.104-1.22-2.103h-2.43l-1.21 2.103 1.21 2.104zm3.76 2.301h-5.09l-2.54-4.405 2.54-4.406h5.09l2.55 4.406-2.55 4.405zm-34.79 93.412h2.43l1.21-2.104-1.21-2.104h-2.43l-1.22 2.104 1.22 2.104zm3.76 2.302h-5.09l-2.54-4.406 2.54-4.406h5.09l2.54 4.406-2.54 4.406zm90.57 29.574h2.43l1.22-2.104-1.22-2.103h-2.43l-1.21 2.103 1.21 2.104zm3.76 2.303h-5.09l-2.54-4.407 2.54-4.406h5.09l2.55 4.406-2.55 4.407zm28.72-97.597h2.43l1.21-2.104-1.21-2.103h-2.43l-1.22 2.103 1.22 2.104zm3.76 2.303h-5.09l-2.55-4.407 2.55-4.405h5.09l2.54 4.405-2.54 4.407z" fill="#4BBB81"/><path d="M946.445 649.484v2.522l2.184-1.262-2.184-1.26zm-2.304 6.509v-10.497l9.093 5.248-9.093 5.249zm31.406 216.631v2.523l2.185-1.261-2.185-1.262zm-2.302 6.51v-10.496l9.094 5.248-9.094 5.248zm98.925-166.209v2.523l2.18-1.262-2.18-1.261zm-2.3 6.51v-10.497l9.09 5.248-9.09 5.249zm-30.56 217.199v2.523l2.18-1.261-2.18-1.262zm-2.31 6.51v-10.496l9.1 5.248-9.1 5.248zm292.88-102.396v2.523l2.19-1.261-2.19-1.262zm-2.3 6.51v-10.496l9.09 5.248-9.09 5.248zm-191.99-69.927v2.523l2.18-1.262-2.18-1.261zm-2.3 6.51v-10.497l9.09 5.248-9.09 5.249zm33.33-102.539v2.522l2.19-1.26-2.19-1.262zm-2.3 6.51v-10.496l9.1 5.248-9.1 5.248zm130.32 57.223v2.523l2.18-1.261-2.18-1.262zm-2.31 6.51v-10.497l9.1 5.249-9.1 5.248zm-61.79 56.981v2.522l2.19-1.261-2.19-1.261zm-2.3 6.509v-10.496l9.09 5.248-9.09 5.248zm35.81 89.586v2.523l2.18-1.261-2.18-1.262zm-2.31 6.51v-10.497l9.1 5.249-9.1 5.248z" fill="#F35D58"/><path d="M1132.74 651.895h11.27v-2.303h-11.27v2.303zm-97.73 95.552h11.28v-2.302h-11.28v2.302zm-62.886 63.49h11.278v-2.302h-11.278v2.302zm-32.474 96.096h11.278v-2.301H939.65v2.301zm223.51-31.995h11.28v-2.303h-11.28v2.303zm-95.55-31.876h11.28v-2.303h-11.28v2.303zm31.53 95.886h11.28v-2.303h-11.28v2.303z" fill="#4BBB81"/><path d="M1036.76 688.2h2.31v-11.274h-2.31V688.2zm5.64 0h2.31v-11.274h-2.31V688.2zm26.88 96.03h2.3v-11.274h-2.3v11.274zm5.64 0h2.3v-11.274h-2.3v11.274zm25.88 31.194h2.31v-11.275h-2.31v11.275zm5.64 0h2.3v-11.275h-2.3v11.275zm185.84 64.099h2.31v-11.274h-2.31v11.274zm5.64 0h2.31v-11.274h-2.31v11.274zm-99.95 31.996h2.31v-11.274h-2.31v11.274zm5.64 0h2.31v-11.274h-2.31v11.274zm25.12 32.013h2.31v-11.274h-2.31v11.274zm5.65 0h2.3v-11.274h-2.3v11.274zm26.83-287.151h2.3v-11.275h-2.3v11.275zm5.64 0h2.3v-11.275h-2.3v11.275zm-294.121 95.552h2.302v-11.274h-2.302v11.274zm5.638 0h2.303v-11.274h-2.303v11.274zm347.543-32.11h2.3v-11.274h-2.3v11.274zm5.64 0h2.31v-11.274h-2.31v11.274zm-325.81 127.825h2.3v-11.275h-2.3v11.275zm5.64 0h2.3v-11.275h-2.3v11.275z" fill="#F2963E"/><path d="M1109.18 685.54c-1.97 0-3.83-.767-5.22-2.163a5.063 5.063 0 0 0-3.6-1.488c-1.35 0-2.63.529-3.59 1.488l-1.63-1.627a7.34 7.34 0 0 1 5.22-2.163c1.98 0 3.83.767 5.23 2.163.96.96 2.23 1.488 3.59 1.488 1.36 0 2.64-.528 3.6-1.488l1.62 1.627a7.323 7.323 0 0 1-5.22 2.163m225.45-31.819c-1.97 0-3.83-.768-5.22-2.163a5.064 5.064 0 0 0-3.6-1.489c-1.36 0-2.63.53-3.59 1.489l-1.63-1.628a7.33 7.33 0 0 1 5.22-2.161c1.97 0 3.83.767 5.22 2.161a5.055 5.055 0 0 0 3.6 1.489c1.36 0 2.63-.528 3.59-1.489l1.63 1.628a7.328 7.328 0 0 1-5.22 2.163m-127.6 191.265a7.34 7.34 0 0 1-5.22-2.163 5.057 5.057 0 0 0-3.59-1.488c-1.36 0-2.64.529-3.6 1.488l-1.63-1.627a7.346 7.346 0 0 1 5.23-2.163c1.97 0 3.82.767 5.22 2.163.96.96 2.24 1.488 3.59 1.488 1.36 0 2.64-.528 3.6-1.488l1.63 1.627a7.346 7.346 0 0 1-5.23 2.163m-161.07 31.876c-1.97 0-3.83-.767-5.22-2.163a5.063 5.063 0 0 0-3.6-1.488 5.04 5.04 0 0 0-3.59 1.488l-1.63-1.627a7.323 7.323 0 0 1 5.22-2.163c1.97 0 3.83.767 5.22 2.163.96.96 2.24 1.488 3.6 1.488 1.36 0 2.63-.528 3.59-1.488l1.63 1.627a7.323 7.323 0 0 1-5.22 2.163m-129.703 64.01a7.336 7.336 0 0 1-5.222-2.162 5.053 5.053 0 0 0-3.595-1.489 5.05 5.05 0 0 0-3.595 1.489l-1.628-1.629a7.338 7.338 0 0 1 5.223-2.161c1.972 0 3.828.767 5.222 2.161a5.047 5.047 0 0 0 3.595 1.49 5.04 5.04 0 0 0 3.595-1.49l1.629 1.629a7.338 7.338 0 0 1-5.224 2.162m33.817-223.709a7.345 7.345 0 0 1-5.224-2.162 5.049 5.049 0 0 0-3.595-1.49c-1.357 0-2.635.53-3.595 1.49l-1.627-1.629a7.336 7.336 0 0 1 5.222-2.161 7.34 7.34 0 0 1 5.224 2.161 5.049 5.049 0 0 0 3.595 1.488 5.054 5.054 0 0 0 3.595-1.488l1.627 1.629a7.337 7.337 0 0 1-5.222 2.162m64.846 64.406c-1.97 0-3.82-.768-5.22-2.163a5.063 5.063 0 0 0-3.6-1.488c-1.35 0-2.63.529-3.59 1.488l-1.63-1.628a7.348 7.348 0 0 1 5.22-2.162c1.98 0 3.83.768 5.23 2.162.96.96 2.24 1.488 3.59 1.488 1.36 0 2.64-.528 3.6-1.488l1.63 1.628a7.35 7.35 0 0 1-5.23 2.163m222.2-32.296c-1.98 0-3.83-.767-5.23-2.163a5.04 5.04 0 0 0-3.59-1.488c-1.36 0-2.64.529-3.6 1.488l-1.62-1.628a7.314 7.314 0 0 1 5.22-2.162c1.97 0 3.83.768 5.22 2.162a5.055 5.055 0 0 0 3.6 1.489c1.36 0 2.63-.528 3.59-1.489l1.63 1.628a7.323 7.323 0 0 1-5.22 2.163m-63.09 63.491c-1.97 0-3.83-.769-5.22-2.163a5.06 5.06 0 0 0-3.6-1.489c-1.35 0-2.63.529-3.59 1.489l-1.63-1.628a7.344 7.344 0 0 1 5.22-2.162c1.98 0 3.83.767 5.23 2.162.96.96 2.23 1.488 3.59 1.488 1.36 0 2.64-.528 3.6-1.488l1.62 1.628a7.332 7.332 0 0 1-5.22 2.163m-32.66 96.095c-1.97 0-3.83-.767-5.22-2.163a5.063 5.063 0 0 0-3.6-1.488 5.04 5.04 0 0 0-3.59 1.488l-1.63-1.628a7.33 7.33 0 0 1 5.22-2.162c1.97 0 3.83.768 5.22 2.162.97.96 2.24 1.489 3.6 1.489 1.36 0 2.63-.529 3.59-1.489l1.63 1.628a7.323 7.323 0 0 1-5.22 2.163" fill="#F35D58"/><path d="M907.029 683.715h11.278v-2.303h-11.278v2.303zm352.801 31.622h11.28v-2.302h-11.28v2.302zm64.75 64.406h11.28v-2.301h-11.28v2.301z" fill="#4BBB81"/><path d="M977.615 681.647a.917.917 0 1 0 .916.917.917.917 0 0 0-.916-.917m0 4.135a3.223 3.223 0 0 1-3.219-3.218 3.223 3.223 0 0 1 3.219-3.219 3.223 3.223 0 0 1 3.219 3.219 3.222 3.222 0 0 1-3.219 3.218m-64.953 187.187a.917.917 0 1 0 .916.917.917.917 0 0 0-.916-.917m0 4.135a3.223 3.223 0 0 1-3.219-3.218 3.223 3.223 0 0 1 3.219-3.219 3.222 3.222 0 0 1 3.218 3.219 3.222 3.222 0 0 1-3.218 3.218m33.002-99.427a.917.917 0 0 0 0 1.832.917.917 0 0 0 0-1.832m0 4.134a3.223 3.223 0 0 1-3.219-3.218 3.223 3.223 0 0 1 3.219-3.219 3.223 3.223 0 0 1 3.219 3.219 3.223 3.223 0 0 1-3.219 3.218m256.146-68.54c-.5 0-.92.41-.92.916 0 .505.42.916.92.916a.917.917 0 0 0 0-1.832m0 4.134a3.227 3.227 0 0 1-3.22-3.218 3.227 3.227 0 0 1 3.22-3.219 3.22 3.22 0 0 1 3.22 3.219 3.22 3.22 0 0 1-3.22 3.218m-32.76 219.575a.917.917 0 0 0 0 1.832.915.915 0 1 0 0-1.832m-.01 4.135a3.219 3.219 0 0 1 0-6.437 3.22 3.22 0 0 1 3.22 3.219 3.22 3.22 0 0 1-3.22 3.218m-65.18-195.735a.916.916 0 0 0 0 1.832.916.916 0 0 0 0-1.832m0 4.135a3.22 3.22 0 0 1-3.22-3.218 3.22 3.22 0 0 1 3.22-3.218 3.218 3.218 0 0 1 0 6.436m-63.12 59.356a.917.917 0 1 0 0 1.832.916.916 0 0 0 0-1.832m0 4.134a3.22 3.22 0 0 1-3.22-3.218 3.22 3.22 0 0 1 3.22-3.219c1.77 0 3.21 1.444 3.21 3.219a3.218 3.218 0 0 1-3.21 3.218" fill="#F2963E"/><path d="M1074.15 904.643c-.73 0-1.33.557-1.33 1.24 0 .683.6 1.239 1.33 1.239.74 0 1.33-.556 1.33-1.239s-.59-1.24-1.33-1.24m0 5.593c-2.58 0-4.68-1.952-4.68-4.353s2.1-4.355 4.68-4.355c2.58 0 4.68 1.954 4.68 4.355 0 2.401-2.1 4.353-4.68 4.353" fill="#4BBB81"/><path d="M1009.7 649.828c-.5 0-.92.411-.92.917 0 .504.42.916.92.916a.918.918 0 0 0 0-1.833m0 4.135a3.226 3.226 0 0 1-3.22-3.218 3.227 3.227 0 0 1 3.22-3.219 3.22 3.22 0 0 1 3.22 3.219 3.22 3.22 0 0 1-3.22 3.218m256.15 187.13a.917.917 0 0 0 0 1.833.916.916 0 1 0 0-1.833m0 4.135a3.22 3.22 0 0 1-3.22-3.218 3.22 3.22 0 0 1 3.22-3.219c1.77 0 3.22 1.444 3.22 3.219a3.226 3.226 0 0 1-3.22 3.218m64.03 59.739c-.5 0-.91.41-.91.917a.915.915 0 1 0 .91-.917m0 4.134a3.226 3.226 0 0 1-3.22-3.217c0-1.775 1.45-3.22 3.22-3.22 1.78 0 3.22 1.445 3.22 3.22a3.22 3.22 0 0 1-3.22 3.217" fill="#F2963E"/></g><path fill-rule="evenodd" clip-rule="evenodd" d="M1652.92 326.138l-1.74-1.739 5.47-5.477 1.74 1.739-5.47 5.477zm5.77 1.443l-1.74-1.738 5.48-5.478 1.74 1.738-5.48 5.478zm-69.27 62.052l-1.74-1.738 5.48-5.477 1.74 1.738-5.48 5.477zm5.77 1.443l-1.73-1.738 5.47-5.477 1.74 1.739-5.48 5.476zm57.73 63.496l-1.74-1.738 5.48-5.477 1.73 1.738-5.47 5.477zm7.21 1.443l-1.74-1.738 5.48-5.477 1.74 1.738-5.48 5.477zm-103.9 92.358l-1.74-1.738 5.48-5.478 1.74 1.738-5.48 5.478zm5.77 2.886l-1.74-1.739 5.48-5.477 1.74 1.739-5.48 5.477zm-101.01 30.305l-1.74-1.738 5.47-5.478 1.74 1.739-5.47 5.477zm5.77 1.443l-1.74-1.739 5.48-5.477 1.73 1.739-5.47 5.477zm-70.71-64.939l-1.74-1.739 5.48-5.476 1.73 1.737-5.47 5.478zm7.21 1.443l-1.74-1.737 5.48-5.478 1.74 1.738-5.48 5.477zm24.53 93.801l-1.73-1.738 5.47-5.478 1.74 1.738-5.48 5.478zm5.78 1.443l-1.74-1.739 5.48-5.477 1.73 1.739-5.47 5.477zm-69.27-193.374l-1.74-1.737 5.48-5.478 1.74 1.737-5.48 5.478zm5.77 1.443l-1.74-1.738 5.48-5.477 1.74 1.738-5.48 5.477z" fill="#F2963E"/><path fill-rule="evenodd" clip-rule="evenodd" d="M1529.48 325.318h2.41l1.2-2.067-1.2-2.066h-2.41l-1.21 2.066 1.21 2.067zm3.73 2.263h-5.05l-2.53-4.33 2.53-4.329h5.05l2.52 4.329-2.52 4.33zm-68.67 61.234h2.41l1.2-2.068-1.2-2.067h-2.41l-1.21 2.067 1.21 2.068zm3.73 2.261h-5.05l-2.53-4.329 2.53-4.329h5.05l2.52 4.329-2.52 4.329zm-100.42 92.981h2.41l1.21-2.067-1.21-2.067h-2.41l-1.21 2.067 1.21 2.067zm3.73 2.263h-5.05l-2.53-4.33 2.53-4.329h5.05l2.53 4.329-2.53 4.33zm253.14-65.757h2.41l1.21-2.067-1.21-2.067h-2.41l-1.21 2.067 1.21 2.067zm3.73 2.261h-5.05l-2.53-4.328 2.53-4.33h5.05l2.52 4.33-2.52 4.328zm-35.48 94.424h2.41l1.21-2.066-1.21-2.067h-2.41l-1.21 2.067 1.21 2.066zm3.73 2.263h-5.05l-2.53-4.329 2.53-4.329h5.05l2.53 4.329-2.53 4.329z" fill="#4BBB81"/><path fill-rule="evenodd" clip-rule="evenodd" d="M1403.72 321.316v2.428l2.08-1.214-2.08-1.214zm-2.2 6.265v-10.102l8.66 5.051-8.66 5.051zm29.62 217.413v2.428l2.08-1.214-2.08-1.214zm-2.2 6.265v-10.102l8.66 5.051-8.66 5.051zm98.88-165.004v2.427l2.08-1.214-2.08-1.213zm-2.19 6.264v-10.101l8.66 5.05-8.66 5.051zm-31.75 223.679l8.66-5.051-8.66-5.051v10.102zm2.19-6.265l2.08 1.214-2.08 1.213v-2.427zm96.69-160.182v2.427l2.08-1.214-2.08-1.213zm-2.19 6.264v-10.101l8.66 5.05-8.66 5.051zm32.5-101.509v2.428l2.08-1.213-2.08-1.215zm-2.2 6.266V350.67l8.66 5.051-8.66 5.051z" fill="#F35D58"/><path fill-rule="evenodd" clip-rule="evenodd" d="M1589.12 324.694h11.55v-2.886h-11.55v2.886zM1491 419.938h11.54v-2.886H1491v2.886zm-62.06 63.496h11.55v-2.886h-11.55v2.886zm-33.19 96.687h11.55v-2.887h-11.55v2.887zm223.68-31.748h11.54v-2.886h-11.54v2.886zm-95.24-31.748h11.54v-2.886h-11.54v2.886zm30.3 95.244h11.55v-2.887h-11.55v2.887z" fill="#4BBB81"/><path fill-rule="evenodd" clip-rule="evenodd" d="M1492.44 360.771h2.89v-11.544h-2.89v11.544zm5.77 0h2.89v-11.544h-2.89v11.544zm27.42 95.244h2.89v-11.544h-2.89v11.544zm4.33 0h2.89v-11.544h-2.89v11.544zm25.97 31.748h2.89v-11.544h-2.89v11.544zm5.78 0h2.88v-11.544h-2.88v11.544zm92.35 96.687h2.89v-11.545h-2.89v11.545zm5.78 0h2.88v-11.545h-2.88v11.545zm-230.9-160.183h2.89v-11.544h-2.89v11.544zm4.33 0h2.89v-11.544h-2.89v11.544zm28.86 96.687h2.89v-11.545h-2.89v11.545zm4.33 0h2.89v-11.545h-2.89v11.545z" fill="#F2963E"/><path fill-rule="evenodd" clip-rule="evenodd" d="M1565.27 358.205c-1.97 0-3.83-.768-5.22-2.163a5.063 5.063 0 0 0-3.6-1.488 5.04 5.04 0 0 0-3.59 1.488l-1.63-1.628a7.327 7.327 0 0 1 5.22-2.162c1.97 0 3.83.767 5.22 2.162a5.055 5.055 0 0 0 3.6 1.489c1.36 0 2.63-.528 3.59-1.489l1.63 1.628a7.328 7.328 0 0 1-5.22 2.163m97.85 159.447c-1.97 0-3.83-.769-5.22-2.164a5.064 5.064 0 0 0-3.6-1.489c-1.35 0-2.63.53-3.59 1.489l-1.63-1.628a7.347 7.347 0 0 1 5.22-2.161c1.98 0 3.83.767 5.23 2.161a5.05 5.05 0 0 0 3.59 1.489c1.36 0 2.64-.528 3.6-1.489l1.63 1.628a7.352 7.352 0 0 1-5.23 2.164m-161.07 31.875a7.35 7.35 0 0 1-5.23-2.163 5.04 5.04 0 0 0-3.59-1.488c-1.36 0-2.64.529-3.6 1.488l-1.62-1.627a7.306 7.306 0 0 1 5.22-2.163c1.97 0 3.83.767 5.22 2.163.96.96 2.24 1.488 3.6 1.488 1.36 0 2.63-.528 3.59-1.488l1.63 1.627a7.328 7.328 0 0 1-5.22 2.163m-129.7 64.01c-1.98 0-3.83-.767-5.23-2.163a5.04 5.04 0 0 0-3.59-1.488c-1.36 0-2.64.529-3.6 1.488l-1.63-1.627a7.346 7.346 0 0 1 5.23-2.163c1.97 0 3.83.767 5.22 2.163.96.96 2.24 1.488 3.6 1.488 1.35 0 2.63-.528 3.59-1.488l1.63 1.627a7.323 7.323 0 0 1-5.22 2.163m33.81-223.709c-1.97 0-3.83-.768-5.22-2.163a5.063 5.063 0 0 0-3.6-1.488c-1.35 0-2.63.529-3.59 1.488l-1.63-1.628a7.33 7.33 0 0 1 5.22-2.162c1.98 0 3.83.768 5.23 2.162.96.96 2.23 1.488 3.59 1.488 1.36 0 2.64-.528 3.6-1.488l1.63 1.628a7.35 7.35 0 0 1-5.23 2.163m64.85 64.406c-1.97 0-3.82-.768-5.22-2.163a5.063 5.063 0 0 0-3.6-1.488c-1.35 0-2.63.529-3.59 1.488l-1.63-1.628a7.348 7.348 0 0 1 5.22-2.162c1.98 0 3.83.768 5.23 2.162.96.96 2.24 1.488 3.59 1.488 1.36 0 2.64-.528 3.6-1.488l1.63 1.628a7.35 7.35 0 0 1-5.23 2.163m159.11 31.194c-1.97 0-3.83-.768-5.22-2.163a5.06 5.06 0 0 0-3.6-1.489c-1.36 0-2.63.529-3.59 1.489l-1.63-1.628a7.327 7.327 0 0 1 5.22-2.162c1.98 0 3.83.767 5.23 2.162.96.96 2.23 1.488 3.59 1.488 1.36 0 2.63-.528 3.6-1.488l1.62 1.628a7.328 7.328 0 0 1-5.22 2.163m-32.66 96.096c-1.98 0-3.83-.767-5.23-2.163a5.04 5.04 0 0 0-3.59-1.488c-1.36 0-2.64.529-3.6 1.488l-1.62-1.628a7.33 7.33 0 0 1 5.22-2.162c1.97 0 3.83.768 5.22 2.162a5.055 5.055 0 0 0 3.6 1.489c1.36 0 2.63-.528 3.59-1.489l1.63 1.628a7.323 7.323 0 0 1-5.22 2.163" fill="#F35D58"/><mask id="c" maskUnits="userSpaceOnUse" x="902" y="-6" width="894" height="623"><path fill-rule="evenodd" clip-rule="evenodd" d="M902.217 616.198h893.723V-5.724H902.217v621.922z" fill="#fff"/></mask><g mask="url(#c)" fill-rule="evenodd" clip-rule="evenodd"><path d="M1363.12 356.38h11.27v-2.303h-11.27v2.303z" fill="#4BBB81"/><path d="M1433.7 354.312a.915.915 0 1 0 .01 1.83.915.915 0 0 0-.01-1.83m0 4.135a3.226 3.226 0 0 1-3.22-3.218 3.227 3.227 0 0 1 3.22-3.219 3.22 3.22 0 0 1 3.22 3.219 3.22 3.22 0 0 1-3.22 3.218m-64.95 187.187c-.5 0-.92.412-.92.917 0 .505.42.916.92.916a.917.917 0 1 0 0-1.833m0 4.135a3.226 3.226 0 0 1-3.22-3.218 3.227 3.227 0 0 1 3.22-3.219 3.22 3.22 0 0 1 3.22 3.219 3.22 3.22 0 0 1-3.22 3.218m33-99.428a.915.915 0 1 0 .01 1.83.915.915 0 0 0-.01-1.83m0 4.135a3.227 3.227 0 0 1-3.22-3.219 3.227 3.227 0 0 1 3.22-3.219 3.22 3.22 0 0 1 0 6.438m256.15-68.541a.917.917 0 0 0 0 1.832.915.915 0 1 0 0-1.832m0 4.135a3.22 3.22 0 0 1 0-6.438c1.77 0 3.22 1.444 3.22 3.219a3.227 3.227 0 0 1-3.22 3.219m-32.77 219.574a.916.916 0 1 0 .012 1.832.916.916 0 0 0-.012-1.832m0 4.135a3.226 3.226 0 0 1-3.22-3.218 3.226 3.226 0 0 1 3.22-3.218 3.22 3.22 0 0 1 3.22 3.218 3.22 3.22 0 0 1-3.22 3.218m-65.18-195.734a.917.917 0 0 0 0 1.832.916.916 0 0 0 0-1.832m0 4.135a3.22 3.22 0 0 1-3.22-3.218 3.22 3.22 0 0 1 3.22-3.219c1.77 0 3.21 1.444 3.21 3.219a3.218 3.218 0 0 1-3.21 3.218m-63.13 59.355a.915.915 0 1 0 .01 1.83.915.915 0 0 0-.01-1.83m0 4.134a3.218 3.218 0 0 1 0-6.436 3.22 3.22 0 0 1 3.22 3.218 3.22 3.22 0 0 1-3.22 3.218" fill="#F2963E"/><path d="M1530.24 577.308c-.73 0-1.33.556-1.33 1.24 0 .683.6 1.24 1.33 1.24.74 0 1.33-.557 1.33-1.24 0-.684-.59-1.24-1.33-1.24m0 5.593c-2.58 0-4.68-1.953-4.68-4.353 0-2.401 2.1-4.355 4.68-4.355 2.58 0 4.68 1.954 4.68 4.355 0 2.4-2.1 4.353-4.68 4.353" fill="#4BBB81"/><path d="M1465.79 322.493c-.51 0-.92.411-.92.916a.915.915 0 1 0 .92-.916m0 4.134a3.22 3.22 0 0 1-3.22-3.218 3.22 3.22 0 0 1 3.22-3.218 3.218 3.218 0 0 1 0 6.436m-269.17-.777l-1.63-1.628 5.14-5.129 1.62 1.628-5.13 5.129zm6.49 1.875l-1.63-1.627 5.13-5.13 1.63 1.627-5.13 5.13zm24.74 29.944l-1.63-1.628 5.13-5.129 1.63 1.627-5.13 5.13zm6.48 1.875l-1.62-1.628 5.13-5.13 1.63 1.629-5.14 5.129zm-101.55 29.748l-1.63-1.628 5.13-5.129 1.63 1.628-5.13 5.129zm6.49 1.876l-1.63-1.629 5.13-5.129 1.63 1.628-5.13 5.13zm57.78 62.53l-1.63-1.628 5.13-5.13 1.63 1.629-5.13 5.129zm6.49 1.875l-1.63-1.628 5.13-5.129 1.63 1.628-5.13 5.129zm-103.76 93.418l-1.63-1.627 5.13-5.13 1.63 1.628-5.13 5.129zm6.48 1.875l-1.62-1.628 5.13-5.129 1.63 1.628-5.14 5.129zm-101.56 30.122l-1.62-1.627 5.13-5.13 1.63 1.628-5.14 5.129zm6.49 1.876l-1.63-1.629 5.14-5.129 1.63 1.628-5.14 5.13zm-70.657-65.748l-1.628-1.628 5.131-5.13 1.628 1.627-5.131 5.131zm6.487 1.874l-1.628-1.627 5.132-5.13 1.629 1.628-5.133 5.129zm345-34.098l-1.63-1.628 5.13-5.128 1.63 1.627-5.13 5.129zm6.49 1.875l-1.63-1.628 5.13-5.129 1.63 1.627-5.13 5.13zM971.703 613.001l-1.629-1.627 5.131-5.129 1.629 1.627-5.131 5.129zm6.488 1.876l-1.628-1.629 5.133-5.129 1.627 1.628-5.132 5.13zm-70.519-193.475l-1.629-1.627 5.131-5.129 1.629 1.627-5.131 5.129zm6.488 1.876l-1.629-1.629 5.134-5.129 1.627 1.628-5.132 5.13z" fill="#F2963E"/><path d="M1073.2 325.513h2.43l1.21-2.104-1.21-2.103h-2.43l-1.22 2.103 1.22 2.104zm3.76 2.302h-5.09l-2.55-4.406 2.55-4.406h5.09l2.54 4.406-2.54 4.406zm-68.47 61.141h2.43l1.21-2.105-1.21-2.103h-2.43l-1.22 2.103 1.22 2.105zm3.75 2.301h-5.08l-2.55-4.406 2.55-4.405h5.08l2.55 4.405-2.55 4.406zm283.43 221.408h2.43l1.21-2.104-1.21-2.103h-2.43l-1.22 2.103 1.22 2.104zm3.76 2.303h-5.09l-2.55-4.407 2.55-4.406h5.09l2.54 4.406-2.54 4.407zM911.588 484.555h2.431l1.214-2.104-1.214-2.103h-2.431l-1.215 2.103 1.215 2.104zm3.759 2.303h-5.087l-2.546-4.407 2.546-4.405h5.087l2.544 4.405-2.544 4.407zm380.323-129.526h2.43l1.21-2.103-1.21-2.104h-2.43l-1.22 2.104 1.22 2.103zm3.76 2.303h-5.09l-2.55-4.406 2.55-4.407h5.09l2.54 4.407-2.54 4.406zm-131.24 61.431h2.43l1.22-2.104-1.22-2.104h-2.43l-1.21 2.104 1.21 2.104zm3.76 2.301h-5.09l-2.54-4.405 2.54-4.406h5.09l2.55 4.406-2.55 4.405zm-34.79 93.411h2.43l1.21-2.103-1.21-2.104h-2.43l-1.22 2.104 1.22 2.103zm3.76 2.303h-5.09l-2.54-4.406 2.54-4.407h5.09l2.54 4.407-2.54 4.406zm90.57 29.573h2.43l1.22-2.103-1.22-2.104h-2.43l-1.21 2.104 1.21 2.103zm3.76 2.303h-5.09l-2.54-4.406 2.54-4.406h5.09l2.55 4.406-2.55 4.406zm28.72-97.596h2.43l1.21-2.104-1.21-2.104h-2.43l-1.22 2.104 1.22 2.104zm3.76 2.302h-5.09l-2.55-4.406 2.55-4.405h5.09l2.54 4.405-2.54 4.406z" fill="#4BBB81"/><path d="M946.445 322.148v2.523l2.184-1.262-2.184-1.261zm-2.304 6.509v-10.496l9.093 5.248-9.093 5.248zm31.406 216.632v2.523l2.185-1.261-2.185-1.262zm-2.302 6.51v-10.496l9.094 5.248-9.094 5.248zm98.925-166.209v2.523l2.18-1.262-2.18-1.261zm-2.3 6.51v-10.497l9.09 5.248-9.09 5.249zm-30.56 217.199v2.523l2.18-1.261-2.18-1.262zm-2.31 6.51v-10.496l9.1 5.248-9.1 5.248zm292.88-102.395v2.522l2.19-1.261-2.19-1.261zm-2.3 6.509v-10.496l9.09 5.248-9.09 5.248zm-191.99-69.927v2.523l2.18-1.262-2.18-1.261zm-2.3 6.51v-10.497l9.09 5.248-9.09 5.249zm33.33-102.539v2.522l2.19-1.261-2.19-1.261zm-2.3 6.51V349.98l9.1 5.248-9.1 5.249zm130.32 57.223v2.523l2.18-1.261-2.18-1.262zm-2.31 6.51v-10.497l9.1 5.249-9.1 5.248zm-61.79 56.98v2.523l2.19-1.262-2.19-1.261zm-2.3 6.51v-10.497l9.09 5.248-9.09 5.249zm35.81 89.586v2.523l2.18-1.261-2.18-1.262zm-2.31 6.51v-10.497l9.1 5.249-9.1 5.248z" fill="#F35D58"/><path d="M1132.74 324.561h11.27v-2.303h-11.27v2.303zm-97.73 95.553h11.28v-2.303h-11.28v2.303zm-62.886 63.489h11.278V481.3h-11.278v2.303zm-32.474 96.095h11.278v-2.302H939.65v2.302zm223.51-31.996h11.28v-2.303h-11.28v2.303zm-95.55-31.876h11.28v-2.303h-11.28v2.303zm31.53 95.886h11.28v-2.303h-11.28v2.303z" fill="#4BBB81"/><path d="M1036.76 360.866h2.31v-11.275h-2.31v11.275zm5.64 0h2.31v-11.275h-2.31v11.275zm26.88 96.028h2.3V445.62h-2.3v11.274zm5.64 0h2.3V445.62h-2.3v11.274zm25.88 31.195h2.31v-11.274h-2.31v11.274zm5.64 0h2.3v-11.274h-2.3v11.274zm185.84 64.099h2.31v-11.275h-2.31v11.275zm5.64 0h2.31v-11.275h-2.31v11.275zm-99.95 31.997h2.31v-11.274h-2.31v11.274zm5.64 0h2.31v-11.274h-2.31v11.274zm25.12 32.013h2.31v-11.274h-2.31v11.274zm5.65 0h2.3v-11.274h-2.3v11.274zm26.83-287.151h2.3v-11.274h-2.3v11.274zm5.64 0h2.3v-11.274h-2.3v11.274zm-294.121 95.552h2.302v-11.275h-2.302v11.275zm5.638 0h2.303v-11.275h-2.303v11.275zm347.543-32.11h2.3v-11.275h-2.3v11.275zm5.64 0h2.31v-11.275h-2.31v11.275zm-325.81 127.823h2.3v-11.275h-2.3v11.275zm5.64 0h2.3v-11.275h-2.3v11.275z" fill="#F2963E"/><path d="M1109.18 358.205c-1.97 0-3.83-.768-5.22-2.163a5.063 5.063 0 0 0-3.6-1.488c-1.35 0-2.63.529-3.59 1.488l-1.63-1.628a7.344 7.344 0 0 1 5.22-2.162c1.98 0 3.83.767 5.23 2.162a5.032 5.032 0 0 0 3.59 1.489c1.36 0 2.64-.528 3.6-1.489l1.62 1.628a7.328 7.328 0 0 1-5.22 2.163m225.45-31.819c-1.97 0-3.83-.768-5.22-2.164a5.063 5.063 0 0 0-3.6-1.488 5.04 5.04 0 0 0-3.59 1.488l-1.63-1.627a7.33 7.33 0 0 1 5.22-2.162c1.97 0 3.83.768 5.22 2.162.96.96 2.24 1.488 3.6 1.488 1.36 0 2.63-.528 3.59-1.488l1.63 1.627a7.324 7.324 0 0 1-5.22 2.164m-127.6 191.266c-1.97 0-3.82-.769-5.22-2.164a5.058 5.058 0 0 0-3.59-1.489c-1.36 0-2.64.53-3.6 1.489l-1.63-1.628a7.353 7.353 0 0 1 5.23-2.161c1.97 0 3.82.767 5.22 2.161a5.05 5.05 0 0 0 3.59 1.489c1.36 0 2.64-.528 3.6-1.489l1.63 1.628a7.352 7.352 0 0 1-5.23 2.164m-161.07 31.875c-1.97 0-3.83-.768-5.22-2.163a5.063 5.063 0 0 0-3.6-1.488 5.04 5.04 0 0 0-3.59 1.488l-1.63-1.627a7.323 7.323 0 0 1 5.22-2.163c1.97 0 3.83.767 5.22 2.163.96.96 2.24 1.488 3.6 1.488 1.36 0 2.63-.528 3.59-1.488l1.63 1.627a7.328 7.328 0 0 1-5.22 2.163m-129.703 64.01a7.333 7.333 0 0 1-5.222-2.163 5.056 5.056 0 0 0-3.595-1.488 5.053 5.053 0 0 0-3.595 1.488l-1.628-1.627a7.332 7.332 0 0 1 5.223-2.163c1.972 0 3.828.767 5.222 2.163a5.054 5.054 0 0 0 3.595 1.488c1.36 0 2.635-.528 3.595-1.488l1.629 1.627a7.334 7.334 0 0 1-5.224 2.163m33.817-223.709a7.342 7.342 0 0 1-5.224-2.163 5.051 5.051 0 0 0-3.595-1.488 5.056 5.056 0 0 0-3.595 1.488l-1.627-1.628a7.337 7.337 0 0 1 5.222-2.162c1.974 0 3.829.768 5.224 2.162a5.049 5.049 0 0 0 3.595 1.488 5.054 5.054 0 0 0 3.595-1.488l1.627 1.628a7.334 7.334 0 0 1-5.222 2.163m64.846 64.406c-1.97 0-3.82-.768-5.22-2.163a5.063 5.063 0 0 0-3.6-1.488c-1.35 0-2.63.529-3.59 1.488l-1.63-1.628a7.348 7.348 0 0 1 5.22-2.162c1.98 0 3.83.768 5.23 2.162.96.96 2.24 1.488 3.59 1.488 1.36 0 2.64-.528 3.6-1.488l1.63 1.628a7.35 7.35 0 0 1-5.23 2.163m222.2-32.296c-1.98 0-3.83-.767-5.23-2.163a5.04 5.04 0 0 0-3.59-1.488c-1.36 0-2.64.529-3.6 1.488l-1.62-1.628a7.31 7.31 0 0 1 5.22-2.162c1.97 0 3.83.767 5.22 2.162a5.055 5.055 0 0 0 3.6 1.489c1.36 0 2.63-.528 3.59-1.489l1.63 1.628a7.323 7.323 0 0 1-5.22 2.163m-63.09 63.49c-1.97 0-3.83-.768-5.22-2.163a5.06 5.06 0 0 0-3.6-1.489c-1.35 0-2.63.529-3.59 1.489l-1.63-1.628a7.344 7.344 0 0 1 5.22-2.162c1.98 0 3.83.767 5.23 2.162.96.96 2.23 1.488 3.59 1.488 1.36 0 2.64-.528 3.6-1.488l1.62 1.628a7.328 7.328 0 0 1-5.22 2.163m-32.66 96.096c-1.97 0-3.83-.767-5.22-2.163a5.063 5.063 0 0 0-3.6-1.488 5.04 5.04 0 0 0-3.59 1.488l-1.63-1.628a7.33 7.33 0 0 1 5.22-2.162c1.97 0 3.83.768 5.22 2.162a5.073 5.073 0 0 0 3.6 1.489c1.36 0 2.63-.528 3.59-1.489l1.63 1.628a7.323 7.323 0 0 1-5.22 2.163" fill="#F35D58"/><path d="M907.029 356.38h11.278v-2.303h-11.278v2.303zm352.801 31.622h11.28v-2.301h-11.28v2.301zm64.75 64.406h11.28v-2.302h-11.28v2.302z" fill="#4BBB81"/><path d="M977.615 354.312a.918.918 0 0 0-.916.917.916.916 0 1 0 .916-.917m0 4.135a3.223 3.223 0 0 1-3.219-3.218 3.223 3.223 0 0 1 3.219-3.219 3.223 3.223 0 0 1 3.219 3.219 3.222 3.222 0 0 1-3.219 3.218m-64.953 187.187a.919.919 0 0 0-.916.917.917.917 0 1 0 .916-.917m0 4.135a3.223 3.223 0 0 1-3.219-3.218 3.223 3.223 0 0 1 3.219-3.219 3.222 3.222 0 0 1 3.218 3.219 3.222 3.222 0 0 1-3.218 3.218m33.002-99.428a.917.917 0 1 0 .917.916.917.917 0 0 0-.917-.916m0 4.135a3.223 3.223 0 0 1-3.219-3.219 3.223 3.223 0 0 1 3.219-3.219 3.223 3.223 0 0 1 3.219 3.219 3.223 3.223 0 0 1-3.219 3.219m256.146-68.541c-.5 0-.92.411-.92.916 0 .506.42.916.92.916a.917.917 0 1 0 0-1.832m0 4.135a3.227 3.227 0 0 1-3.22-3.219 3.227 3.227 0 0 1 3.22-3.219 3.22 3.22 0 0 1 0 6.438m-32.76 219.574a.917.917 0 0 0 0 1.832.916.916 0 0 0 0-1.832m-.01 4.135a3.218 3.218 0 0 1 0-6.436 3.22 3.22 0 0 1 3.22 3.218 3.22 3.22 0 0 1-3.22 3.218m-65.18-195.734a.917.917 0 0 0 0 1.832.916.916 0 0 0 0-1.832m0 4.135a3.22 3.22 0 0 1-3.22-3.218 3.22 3.22 0 0 1 3.22-3.219c1.77 0 3.21 1.444 3.21 3.219a3.218 3.218 0 0 1-3.21 3.218m-63.12 59.355c-.51 0-.92.411-.92.916a.915.915 0 1 0 .92-.916m0 4.134a3.22 3.22 0 0 1-3.22-3.218 3.22 3.22 0 0 1 3.22-3.218 3.218 3.218 0 0 1 0 6.436" fill="#F2963E"/><path d="M1074.15 577.308c-.73 0-1.33.556-1.33 1.24 0 .683.6 1.24 1.33 1.24.74 0 1.33-.557 1.33-1.24 0-.684-.59-1.24-1.33-1.24m0 5.593c-2.58 0-4.68-1.953-4.68-4.353 0-2.401 2.1-4.355 4.68-4.355 2.58 0 4.68 1.954 4.68 4.355 0 2.4-2.1 4.353-4.68 4.353" fill="#4BBB81"/><path d="M1009.7 322.493c-.5 0-.92.411-.92.916 0 .505.42.916.92.916.51 0 .92-.411.92-.916a.917.917 0 0 0-.92-.916m0 4.134a3.226 3.226 0 0 1-3.22-3.218 3.226 3.226 0 0 1 3.22-3.218 3.22 3.22 0 0 1 3.22 3.218 3.22 3.22 0 0 1-3.22 3.218m256.15 187.131c-.51 0-.92.412-.92.917a.916.916 0 1 0 .92-.917m0 4.135a3.22 3.22 0 0 1-3.22-3.218 3.22 3.22 0 0 1 3.22-3.219c1.77 0 3.22 1.444 3.22 3.219a3.226 3.226 0 0 1-3.22 3.218m64.03 59.738a.916.916 0 1 0 .012 1.832.916.916 0 0 0-.012-1.832m0 4.135a3.226 3.226 0 0 1-3.22-3.218 3.226 3.226 0 0 1 3.22-3.218 3.22 3.22 0 0 1 3.22 3.218 3.22 3.22 0 0 1-3.22 3.218M1652.71 2.354l-1.63-1.628 5.13-5.13 1.63 1.629-5.13 5.129zm6.49 1.874l-1.63-1.627 5.13-5.13 1.63 1.628-5.13 5.13zm-70.33 61.568l-1.63-1.628 5.13-5.129 1.63 1.627-5.13 5.13zm6.48 1.875l-1.63-1.628 5.14-5.128 1.63 1.627-5.14 5.13zm57.79 62.531l-1.63-1.628 5.13-5.13 1.63 1.628-5.13 5.13zm6.49 1.875l-1.63-1.628 5.13-5.13 1.63 1.629-5.13 5.129zm-103.76 93.418l-1.63-1.627 5.13-5.13 1.63 1.627-5.13 5.13zm6.48 1.875l-1.63-1.628 5.14-5.13 1.63 1.628-5.14 5.13zm-101.56 30.122l-1.63-1.628 5.14-5.13 1.62 1.628-5.13 5.13zm6.49 1.875l-1.63-1.628 5.13-5.13 1.63 1.629-5.13 5.129zm-70.66-65.749l-1.63-1.627 5.13-5.129 1.63 1.627-5.13 5.129zm6.49 1.876l-1.63-1.628 5.13-5.13 1.63 1.628-5.13 5.13zm24.68 94.011l-1.63-1.627 5.14-5.13 1.62 1.627-5.13 5.13zm6.49 1.875l-1.63-1.628 5.13-5.13 1.63 1.629-5.13 5.129zm-70.52-193.474l-1.63-1.629 5.13-5.13 1.63 1.63-5.13 5.129zm6.49 1.875l-1.63-1.628 5.13-5.13 1.63 1.629-5.13 5.129z" fill="#F2963E"/><path d="M1529.29 2.016h2.43l1.21-2.103-1.21-2.104h-2.43l-1.22 2.104 1.22 2.103zm3.76 2.303h-5.09l-2.55-4.406 2.55-4.407h5.09l2.54 4.407-2.54 4.406zm-68.48 61.139h2.43l1.22-2.103-1.22-2.104h-2.43l-1.21 2.104 1.21 2.103zm3.76 2.303h-5.08l-2.55-4.406 2.55-4.406h5.08l2.55 4.406-2.55 4.406zm-100.65 93.297h2.43l1.21-2.103-1.21-2.104h-2.43l-1.22 2.104 1.22 2.103zm3.75 2.303h-5.08l-2.55-4.406 2.55-4.406h5.08l2.55 4.406-2.55 4.406zm252.85-65.792h2.43l1.22-2.103-1.22-2.104h-2.43l-1.21 2.104 1.21 2.103zm3.76 2.302h-5.09l-2.54-4.405 2.54-4.407h5.09l2.55 4.407-2.55 4.405zm-34.79 93.411h2.43l1.21-2.104-1.21-2.103h-2.43l-1.22 2.103 1.22 2.104zm3.76 2.303h-5.09l-2.54-4.407 2.54-4.406h5.09l2.54 4.406-2.54 4.407z" fill="#4BBB81"/><path d="M1402.53-1.348v2.523l2.19-1.262-2.19-1.261zm-2.3 6.509V-5.335l9.09 5.248-9.09 5.248zm31.41 216.631v2.523l2.18-1.261-2.18-1.262zm-2.31 6.51v-10.496l9.1 5.248-9.1 5.248zm98.93-166.208v2.522l2.18-1.262-2.18-1.26zm-2.31 6.51V58.106l9.1 5.248-9.1 5.25zm-30.55 217.199v2.522l2.18-1.261-2.18-1.261zm-2.31 6.51v-10.496l9.1 5.248-9.1 5.248zm98.59-165.813v2.522l2.18-1.262-2.18-1.26zm-2.3 6.51v-10.498l9.09 5.248-9.09 5.25zm33.33-102.54v2.523l2.19-1.261-2.19-1.262zm-2.3 6.51V26.484l9.09 5.248-9.09 5.248z" fill="#F35D58"/><path d="M1588.82 1.063h11.28v-2.302h-11.28v2.302zm-97.72 95.552h11.28v-2.302h-11.28v2.302zm-62.89 63.491h11.28v-2.303h-11.28v2.303zm-32.47 96.095h11.28V253.9h-11.28v2.301zm223.51-31.995h11.28v-2.303h-11.28v2.303zm-95.55-31.876h11.28v-2.303h-11.28v2.303zm31.53 95.886h11.28v-2.303h-11.28v2.303z" fill="#4BBB81"/><path d="M1492.85 37.369h2.31V26.095h-2.31v11.274zm5.64 0h2.31V26.095h-2.31v11.274zm26.88 96.029h2.3v-11.274h-2.3v11.274zm5.64 0h2.3v-11.274h-2.3v11.274zm25.88 31.194h2.3v-11.274h-2.3v11.274zm5.64 0h2.3v-11.274h-2.3v11.274zm91.53 96.096h2.31v-11.274h-2.31v11.274zm5.64 0h2.3v-11.274h-2.3v11.274zm-230.88-159.587h2.3V89.827h-2.3v11.274zm5.64 0h2.3V89.827h-2.3v11.274zm27.37 95.715h2.3v-11.275h-2.3v11.275zm5.64 0h2.3v-11.275h-2.3v11.275z" fill="#F2963E"/><path d="M1565.27 34.708c-1.97 0-3.83-.767-5.22-2.163a5.062 5.062 0 0 0-3.6-1.488 5.04 5.04 0 0 0-3.59 1.488l-1.63-1.627a7.325 7.325 0 0 1 5.22-2.163c1.97 0 3.83.767 5.22 2.163.96.96 2.24 1.488 3.6 1.488 1.36 0 2.63-.528 3.59-1.488l1.63 1.627a7.325 7.325 0 0 1-5.22 2.163m97.85 159.446c-1.97 0-3.83-.767-5.22-2.163a5.063 5.063 0 0 0-3.6-1.488c-1.35 0-2.63.529-3.59 1.488l-1.63-1.627a7.345 7.345 0 0 1 5.22-2.163c1.98 0 3.83.768 5.23 2.163.96.96 2.24 1.488 3.59 1.488 1.36 0 2.64-.528 3.6-1.488l1.63 1.627a7.346 7.346 0 0 1-5.23 2.163m-161.07 31.876a7.35 7.35 0 0 1-5.23-2.162 5.036 5.036 0 0 0-3.59-1.489 5.06 5.06 0 0 0-3.6 1.489l-1.62-1.628a7.31 7.31 0 0 1 5.22-2.162c1.97 0 3.83.767 5.22 2.162a5.06 5.06 0 0 0 3.6 1.489c1.36 0 2.63-.529 3.59-1.489l1.63 1.628a7.327 7.327 0 0 1-5.22 2.162m-129.7 64.011a7.35 7.35 0 0 1-5.23-2.163 5.04 5.04 0 0 0-3.59-1.488c-1.36 0-2.64.529-3.6 1.488l-1.63-1.628a7.35 7.35 0 0 1 5.23-2.162c1.97 0 3.83.767 5.22 2.162a5.055 5.055 0 0 0 3.6 1.489 5.05 5.05 0 0 0 3.59-1.489l1.63 1.628a7.328 7.328 0 0 1-5.22 2.163m33.81-223.709a7.33 7.33 0 0 1-5.22-2.163 5.063 5.063 0 0 0-3.6-1.49c-1.35 0-2.63.53-3.59 1.49l-1.63-1.629a7.328 7.328 0 0 1 5.22-2.161c1.98 0 3.83.767 5.23 2.161.96.96 2.23 1.489 3.59 1.489 1.36 0 2.64-.528 3.6-1.489l1.63 1.629a7.353 7.353 0 0 1-5.23 2.163m64.85 64.405c-1.97 0-3.82-.768-5.22-2.162a5.064 5.064 0 0 0-3.6-1.489c-1.35 0-2.63.53-3.59 1.489l-1.63-1.629a7.347 7.347 0 0 1 5.22-2.161c1.98 0 3.83.767 5.23 2.161a5.05 5.05 0 0 0 3.59 1.489c1.36 0 2.64-.528 3.6-1.489l1.63 1.629a7.354 7.354 0 0 1-5.23 2.162m159.11 31.195c-1.97 0-3.83-.769-5.22-2.163a5.06 5.06 0 0 0-3.6-1.489c-1.36 0-2.63.529-3.59 1.489l-1.63-1.628a7.327 7.327 0 0 1 5.22-2.162c1.98 0 3.83.767 5.23 2.162.96.96 2.23 1.488 3.59 1.488 1.36 0 2.63-.528 3.6-1.488l1.62 1.628a7.332 7.332 0 0 1-5.22 2.163m-32.66 96.095a7.35 7.35 0 0 1-5.23-2.162 5.04 5.04 0 0 0-3.59-1.488c-1.36 0-2.64.529-3.6 1.488l-1.62-1.629a7.33 7.33 0 0 1 5.22-2.161c1.97 0 3.83.767 5.22 2.161.96.961 2.24 1.49 3.6 1.49 1.36 0 2.63-.529 3.59-1.49l1.63 1.629a7.327 7.327 0 0 1-5.22 2.162" fill="#F35D58"/><path d="M1363.12 32.884h11.27V30.58h-11.27v2.303z" fill="#4BBB81"/><path d="M1433.7 30.815a.916.916 0 1 0 .012 1.832.916.916 0 0 0-.012-1.832m0 4.135a3.226 3.226 0 0 1-3.22-3.218 3.227 3.227 0 0 1 3.22-3.219 3.22 3.22 0 0 1 3.22 3.22 3.22 3.22 0 0 1-3.22 3.217m-64.95 187.188c-.5 0-.92.411-.92.917 0 .504.42.915.92.915a.917.917 0 1 0 0-1.832m0 4.134a3.226 3.226 0 0 1-3.22-3.217 3.227 3.227 0 0 1 3.22-3.219 3.22 3.22 0 0 1 3.22 3.219 3.22 3.22 0 0 1-3.22 3.217m33-99.427a.915.915 0 1 0 .92.916.917.917 0 0 0-.92-.916m0 4.135a3.227 3.227 0 0 1-3.22-3.219 3.227 3.227 0 0 1 3.22-3.219 3.22 3.22 0 0 1 0 6.438m256.15-68.541a.917.917 0 1 0 0 1.832c.5 0 .91-.41.91-.916a.915.915 0 0 0-.91-.916m0 4.135a3.22 3.22 0 0 1-3.22-3.219 3.22 3.22 0 0 1 3.22-3.219c1.77 0 3.22 1.444 3.22 3.219a3.227 3.227 0 0 1-3.22 3.219m-32.77 219.574a.916.916 0 1 0 .012 1.832.916.916 0 0 0-.012-1.832m0 4.135a3.226 3.226 0 0 1-3.22-3.218 3.227 3.227 0 0 1 3.22-3.219 3.22 3.22 0 0 1 3.22 3.219 3.22 3.22 0 0 1-3.22 3.218m-65.18-195.734a.917.917 0 0 0 0 1.832.916.916 0 1 0 0-1.832m0 4.135a3.22 3.22 0 0 1-3.22-3.218 3.22 3.22 0 0 1 3.22-3.22 3.218 3.218 0 0 1 0 6.438m-63.13 59.355a.915.915 0 1 0 .01 1.83.915.915 0 0 0-.01-1.83m0 4.134a3.218 3.218 0 0 1-3.21-3.218 3.218 3.218 0 0 1 3.21-3.219 3.22 3.22 0 0 1 3.22 3.219 3.22 3.22 0 0 1-3.22 3.218" fill="#F2963E"/><path d="M1530.24 253.812c-.73 0-1.33.556-1.33 1.239s.6 1.239 1.33 1.239c.74 0 1.33-.556 1.33-1.239s-.59-1.239-1.33-1.239m0 5.593c-2.58 0-4.68-1.953-4.68-4.354s2.1-4.355 4.68-4.355c2.58 0 4.68 1.954 4.68 4.355 0 2.401-2.1 4.354-4.68 4.354" fill="#4BBB81"/><path d="M1465.79-1.004c-.51 0-.92.412-.92.917a.916.916 0 0 0 1.83 0 .916.916 0 0 0-.91-.917m0 4.135a3.22 3.22 0 0 1-3.22-3.218 3.22 3.22 0 0 1 3.22-3.219 3.218 3.218 0 0 1 0 6.437m-269.17-.777l-1.63-1.628 5.14-5.13 1.62 1.629-5.13 5.129zm6.49 1.874l-1.63-1.627 5.13-5.13 1.63 1.628-5.13 5.13zm24.74 29.944l-1.63-1.627 5.13-5.13 1.63 1.628-5.13 5.13zm6.48 1.876l-1.62-1.629 5.13-5.13 1.63 1.63-5.14 5.129zm-101.55 29.748l-1.63-1.628 5.13-5.129 1.63 1.627-5.13 5.13zm6.49 1.875l-1.63-1.628 5.13-5.128 1.63 1.627-5.13 5.13zm57.78 62.531l-1.63-1.628 5.13-5.13 1.63 1.628-5.13 5.13zm6.49 1.875l-1.63-1.628 5.13-5.13 1.63 1.629-5.13 5.129zm-103.76 93.418l-1.63-1.627 5.13-5.13 1.63 1.627-5.13 5.13zm6.48 1.875l-1.62-1.628 5.13-5.13 1.63 1.628-5.14 5.13zm-101.56 30.122l-1.62-1.628 5.13-5.13 1.63 1.628-5.14 5.13zm6.49 1.875l-1.63-1.628 5.14-5.13 1.63 1.629-5.14 5.129zm-70.657-65.749l-1.628-1.627 5.131-5.129 1.628 1.627-5.131 5.129zm6.487 1.876l-1.628-1.628 5.132-5.13 1.629 1.628-5.133 5.13zm345-34.098l-1.63-1.628 5.13-5.13 1.63 1.628-5.13 5.13zm6.49 1.874l-1.63-1.627 5.13-5.129 1.63 1.627-5.13 5.129zM971.703 289.505l-1.629-1.627 5.131-5.13 1.629 1.627-5.131 5.13zm6.488 1.875l-1.628-1.628 5.133-5.13 1.627 1.629-5.132 5.129zM907.672 97.906l-1.629-1.629 5.131-5.13 1.629 1.63-5.131 5.129zm6.488 1.875l-1.629-1.628 5.134-5.13 1.627 1.629-5.132 5.129z" fill="#F2963E"/><path d="M1073.2 2.016h2.43l1.21-2.103-1.21-2.104h-2.43l-1.22 2.104 1.22 2.103zm3.76 2.303h-5.09l-2.55-4.406 2.55-4.407h5.09l2.54 4.407-2.54 4.406zm-68.47 61.139h2.43l1.21-2.103-1.21-2.104h-2.43l-1.22 2.104 1.22 2.103zm3.75 2.303h-5.08l-2.55-4.406 2.55-4.406h5.08l2.55 4.406-2.55 4.406zm283.43 221.407h2.43l1.21-2.103-1.21-2.104h-2.43l-1.22 2.104 1.22 2.103zm3.76 2.302h-5.09l-2.55-4.405 2.55-4.407h5.09l2.54 4.407-2.54 4.405zM911.588 161.058h2.431l1.214-2.103-1.214-2.104h-2.431l-1.215 2.104 1.215 2.103zm3.759 2.303h-5.087l-2.546-4.406 2.546-4.406h5.087l2.544 4.406-2.544 4.406zM1295.67 33.836h2.43l1.21-2.104-1.21-2.104h-2.43l-1.22 2.104 1.22 2.104zm3.76 2.303h-5.09l-2.55-4.407 2.55-4.406h5.09l2.54 4.406-2.54 4.407zm-131.24 61.43h2.43l1.22-2.103-1.22-2.104h-2.43l-1.21 2.104 1.21 2.103zm3.76 2.302h-5.09l-2.54-4.405 2.54-4.407h5.09l2.55 4.407-2.55 4.405zm-34.79 93.411h2.43l1.21-2.104-1.21-2.103h-2.43l-1.22 2.103 1.22 2.104zm3.76 2.303h-5.09l-2.54-4.407 2.54-4.406h5.09l2.54 4.406-2.54 4.407zm90.57 29.573h2.43l1.22-2.104-1.22-2.103h-2.43l-1.21 2.103 1.21 2.104zm3.76 2.303h-5.09l-2.54-4.407 2.54-4.406h5.09l2.55 4.406-2.55 4.407zm28.72-97.597h2.43l1.21-2.103-1.21-2.104h-2.43l-1.22 2.104 1.22 2.103zm3.76 2.303h-5.09l-2.55-4.406 2.55-4.406h5.09l2.54 4.406-2.54 4.406z" fill="#4BBB81"/><path d="M946.445-1.348v2.523l2.184-1.262-2.184-1.261zm-2.304 6.509V-5.335l9.093 5.248-9.093 5.248zm31.406 216.631v2.523l2.185-1.261-2.185-1.262zm-2.302 6.51v-10.496l9.094 5.248-9.094 5.248zm98.925-166.208v2.522l2.18-1.262-2.18-1.26zm-2.3 6.51V58.106l9.09 5.248-9.09 5.25zm-30.56 217.199v2.522l2.18-1.261-2.18-1.261zm-2.31 6.51v-10.496l9.1 5.248-9.1 5.248zm292.88-102.397v2.523l2.19-1.261-2.19-1.262zm-2.3 6.51V185.93l9.09 5.248-9.09 5.248zM1135.59 126.5v2.522l2.18-1.262-2.18-1.26zm-2.3 6.51v-10.498l9.09 5.248-9.09 5.25zm33.33-102.54v2.523l2.19-1.261-2.19-1.262zm-2.3 6.51V26.484l9.1 5.248-9.1 5.248zm130.32 57.224v2.522l2.18-1.26-2.18-1.262zm-2.31 6.509V90.216l9.1 5.25-9.1 5.247zm-61.79 56.981v2.523l2.19-1.262-2.19-1.261zm-2.3 6.509v-10.496l9.09 5.248-9.09 5.248zm35.81 89.587v2.522l2.18-1.261-2.18-1.261zm-2.31 6.509v-10.497l9.1 5.249-9.1 5.248z" fill="#F35D58"/><path d="M1132.74 1.063h11.27v-2.302h-11.27v2.302zm-97.73 95.552h11.28v-2.302h-11.28v2.302zm-62.886 63.491h11.278v-2.303h-11.278v2.303zm-32.474 96.095h11.278V253.9H939.65v2.301zm223.51-31.995h11.28v-2.303h-11.28v2.303zm-95.55-31.876h11.28v-2.303h-11.28v2.303zm31.53 95.886h11.28v-2.303h-11.28v2.303z" fill="#4BBB81"/><path d="M1036.76 37.369h2.31V26.095h-2.31v11.274zm5.64 0h2.31V26.095h-2.31v11.274zm26.88 96.029h2.3v-11.274h-2.3v11.274zm5.64 0h2.3v-11.274h-2.3v11.274zm25.88 31.194h2.31v-11.274h-2.31v11.274zm5.64 0h2.3v-11.274h-2.3v11.274zm185.84 64.099h2.31v-11.274h-2.31v11.274zm5.64 0h2.31v-11.274h-2.31v11.274zm-99.95 31.997h2.31v-11.274h-2.31v11.274zm5.64 0h2.31v-11.274h-2.31v11.274zm25.12 32.013h2.31v-11.274h-2.31v11.274zm5.65 0h2.3v-11.274h-2.3v11.274zM1261.21 5.55h2.3V-5.726h-2.3V5.55zm5.64 0h2.3V-5.726h-2.3V5.55zm-294.121 95.551h2.302V89.827h-2.302v11.274zm5.638 0h2.303V89.827h-2.303v11.274zm347.543-32.11h2.3V57.717h-2.3v11.274zm5.64 0h2.31V57.717h-2.31v11.274zm-325.81 127.825h2.3v-11.275h-2.3v11.275zm5.64 0h2.3v-11.275h-2.3v11.275z" fill="#F2963E"/><path d="M1109.18 34.708c-1.97 0-3.83-.767-5.22-2.163a5.062 5.062 0 0 0-3.6-1.488c-1.35 0-2.63.529-3.59 1.488l-1.63-1.627a7.342 7.342 0 0 1 5.22-2.163c1.98 0 3.83.767 5.23 2.163.96.96 2.23 1.488 3.59 1.488 1.36 0 2.64-.528 3.6-1.488l1.62 1.627a7.325 7.325 0 0 1-5.22 2.163M1334.63 2.89c-1.97 0-3.83-.769-5.22-2.164a5.063 5.063 0 0 0-3.6-1.488 5.04 5.04 0 0 0-3.59 1.488l-1.63-1.627a7.329 7.329 0 0 1 5.22-2.162c1.97 0 3.83.767 5.22 2.162.96.96 2.24 1.488 3.6 1.488 1.36 0 2.63-.528 3.59-1.488l1.63 1.627a7.326 7.326 0 0 1-5.22 2.164m-127.6 191.264a7.34 7.34 0 0 1-5.22-2.163 5.057 5.057 0 0 0-3.59-1.488c-1.36 0-2.64.529-3.6 1.488l-1.63-1.627a7.35 7.35 0 0 1 5.23-2.163c1.97 0 3.82.768 5.22 2.163.96.96 2.24 1.488 3.59 1.488 1.36 0 2.64-.528 3.6-1.488l1.63 1.627a7.346 7.346 0 0 1-5.23 2.163m-161.07 31.876c-1.97 0-3.83-.767-5.22-2.162a5.06 5.06 0 0 0-3.6-1.489c-1.36 0-2.63.529-3.59 1.489l-1.63-1.628a7.327 7.327 0 0 1 5.22-2.162c1.97 0 3.83.767 5.22 2.162a5.06 5.06 0 0 0 3.6 1.489c1.36 0 2.63-.529 3.59-1.489l1.63 1.628a7.327 7.327 0 0 1-5.22 2.162m-129.703 64.011a7.337 7.337 0 0 1-5.222-2.163 5.056 5.056 0 0 0-3.595-1.488 5.053 5.053 0 0 0-3.595 1.488l-1.628-1.628a7.335 7.335 0 0 1 5.223-2.162c1.972 0 3.828.767 5.222 2.162a5.05 5.05 0 0 0 3.595 1.489c1.36 0 2.635-.528 3.595-1.489l1.629 1.628a7.339 7.339 0 0 1-5.224 2.163m33.817-223.709a7.344 7.344 0 0 1-5.224-2.163 5.052 5.052 0 0 0-3.595-1.49c-1.357 0-2.635.53-3.595 1.49l-1.627-1.629a7.335 7.335 0 0 1 5.222-2.161 7.34 7.34 0 0 1 5.224 2.161 5.048 5.048 0 0 0 3.595 1.489 5.054 5.054 0 0 0 3.595-1.489l1.627 1.629a7.336 7.336 0 0 1-5.222 2.163m64.846 64.405c-1.97 0-3.82-.768-5.22-2.162a5.064 5.064 0 0 0-3.6-1.489c-1.35 0-2.63.53-3.59 1.489l-1.63-1.629a7.347 7.347 0 0 1 5.22-2.161c1.98 0 3.83.767 5.23 2.161a5.05 5.05 0 0 0 3.59 1.489c1.36 0 2.64-.528 3.6-1.489l1.63 1.629a7.354 7.354 0 0 1-5.23 2.162m222.2-32.296c-1.98 0-3.83-.767-5.23-2.163a5.04 5.04 0 0 0-3.59-1.488c-1.36 0-2.64.53-3.6 1.488l-1.62-1.628a7.312 7.312 0 0 1 5.22-2.162c1.97 0 3.83.768 5.22 2.162.96.962 2.24 1.49 3.6 1.49a5.03 5.03 0 0 0 3.59-1.49l1.63 1.628a7.325 7.325 0 0 1-5.22 2.163m-63.09 63.491c-1.97 0-3.83-.769-5.22-2.163a5.06 5.06 0 0 0-3.6-1.489c-1.35 0-2.63.529-3.59 1.489l-1.63-1.628a7.344 7.344 0 0 1 5.22-2.162c1.98 0 3.83.767 5.23 2.162.96.96 2.23 1.488 3.59 1.488 1.36 0 2.64-.528 3.6-1.488l1.62 1.628a7.332 7.332 0 0 1-5.22 2.163m-32.66 96.095c-1.97 0-3.83-.767-5.22-2.162a5.063 5.063 0 0 0-3.6-1.488 5.04 5.04 0 0 0-3.59 1.488l-1.63-1.629a7.33 7.33 0 0 1 5.22-2.161c1.97 0 3.83.767 5.22 2.161.97.961 2.24 1.49 3.6 1.49 1.36 0 2.63-.529 3.59-1.49l1.63 1.629a7.327 7.327 0 0 1-5.22 2.162" fill="#F35D58"/><path d="M907.029 32.884h11.278V30.58h-11.278v2.303zm352.801 31.621h11.28v-2.301h-11.28v2.301zm64.75 64.407h11.28v-2.302h-11.28v2.302z" fill="#4BBB81"/><path d="M977.615 30.815a.918.918 0 0 0-.916.917.916.916 0 1 0 .916-.917m0 4.135a3.223 3.223 0 0 1-3.219-3.218 3.223 3.223 0 0 1 3.219-3.219 3.223 3.223 0 0 1 3.219 3.22 3.222 3.222 0 0 1-3.219 3.217m-64.953 187.188a.918.918 0 0 0-.916.917.916.916 0 1 0 .916-.917m0 4.134a3.223 3.223 0 0 1-3.219-3.217 3.223 3.223 0 0 1 3.219-3.219 3.222 3.222 0 0 1 3.218 3.219 3.221 3.221 0 0 1-3.218 3.217m33.002-99.427a.917.917 0 0 0 0 1.832.917.917 0 0 0 0-1.832m0 4.135a3.223 3.223 0 0 1-3.219-3.219 3.223 3.223 0 0 1 3.219-3.219 3.223 3.223 0 0 1 3.219 3.219 3.223 3.223 0 0 1-3.219 3.219m256.146-68.541c-.5 0-.92.41-.92.916 0 .505.42.916.92.916a.917.917 0 1 0 0-1.832m0 4.135a3.227 3.227 0 0 1-3.22-3.219 3.227 3.227 0 0 1 3.22-3.219 3.22 3.22 0 0 1 3.22 3.219 3.22 3.22 0 0 1-3.22 3.219m-32.76 219.574a.917.917 0 0 0 0 1.832.915.915 0 0 0 0-1.832m-.01 4.135a3.218 3.218 0 0 1-3.21-3.218 3.218 3.218 0 0 1 3.21-3.219 3.22 3.22 0 0 1 3.22 3.219 3.22 3.22 0 0 1-3.22 3.218m-65.18-195.734a.917.917 0 0 0 0 1.832.916.916 0 1 0 0-1.832m0 4.135a3.22 3.22 0 0 1-3.22-3.218 3.22 3.22 0 0 1 3.22-3.22 3.218 3.218 0 0 1 0 6.438m-63.12 59.355c-.51 0-.92.411-.92.916a.916.916 0 1 0 .92-.916m0 4.134a3.22 3.22 0 0 1-3.22-3.218 3.22 3.22 0 0 1 3.22-3.219c1.77 0 3.21 1.444 3.21 3.219a3.218 3.218 0 0 1-3.21 3.218" fill="#F2963E"/><path d="M1074.15 253.812c-.73 0-1.33.556-1.33 1.239s.6 1.239 1.33 1.239c.74 0 1.33-.556 1.33-1.239s-.59-1.239-1.33-1.239m0 5.593c-2.58 0-4.68-1.953-4.68-4.354s2.1-4.355 4.68-4.355c2.58 0 4.68 1.954 4.68 4.355 0 2.401-2.1 4.354-4.68 4.354" fill="#4BBB81"/><path d="M1009.7-1.004c-.5 0-.92.412-.92.917 0 .504.42.916.92.916.51 0 .92-.412.92-.916a.918.918 0 0 0-.92-.917m0 4.135a3.226 3.226 0 0 1-3.22-3.218 3.227 3.227 0 0 1 3.22-3.219 3.22 3.22 0 0 1 3.22 3.219 3.22 3.22 0 0 1-3.22 3.218m256.15 187.131a.918.918 0 1 0 0 1.833.916.916 0 0 0 0-1.833m0 4.134a3.22 3.22 0 0 1-3.22-3.217 3.22 3.22 0 0 1 3.22-3.219c1.77 0 3.22 1.444 3.22 3.219a3.226 3.226 0 0 1-3.22 3.217m64.03 59.739c-.5 0-.91.41-.91.917a.915.915 0 1 0 .91-.917m0 4.135a3.226 3.226 0 0 1-3.22-3.218c0-1.775 1.45-3.22 3.22-3.22a3.22 3.22 0 0 1 0 6.438" fill="#F2963E"/></g></g></svg>