<svg width="67" height="52" viewBox="0 0 67 52" fill="none" xmlns="http://www.w3.org/2000/svg"><path fill-rule="evenodd" clip-rule="evenodd" d="M9.898 31.813a4.092 4.092 0 0 1-3.129 1.474c-2.285 0-4.145-1.923-4.145-4.287s1.86-4.287 4.145-4.287A4.05 4.05 0 0 1 9.7 25.97l.133.137 1.855-1.919-.132-.137C10.278 22.728 8.578 22 6.769 22 3.037 22 0 25.14 0 29s3.037 7 6.77 7c1.958 0 3.82-.877 5.107-2.406l.123-.146-1.98-1.782-.122.146z" fill="#15303C"/><mask id="a" maskUnits="userSpaceOnUse" x="0" y="0" width="67" height="52"><path fill-rule="evenodd" clip-rule="evenodd" d="M0 52h67V0H0v52z" fill="#fff"/></mask><g mask="url(#a)" fill-rule="evenodd" clip-rule="evenodd" fill="#15303C"><path d="M55 31h12v-3H55v3zm0-6h12v-3H55v3zm0 12h12v-3H55v3zm-25.714-8A4.291 4.291 0 0 1 25 33.286 4.291 4.291 0 0 1 20.714 29 4.291 4.291 0 0 1 25 24.713 4.291 4.291 0 0 1 29.286 29zM25 22c-3.86 0-7 3.14-7 7s3.14 7 7 7 7-3.14 7-7-3.14-7-7-7zm19.877-10.406l.123-.146-1.98-1.782-.122.147a4.09 4.09 0 0 1-3.129 1.474c-2.286 0-4.145-1.923-4.145-4.287 0-2.363 1.86-4.286 4.145-4.286 1.108 0 2.149.446 2.932 1.255l.132.137 1.855-1.919-.132-.137C43.277.728 41.577 0 39.769 0 36.037 0 33 3.14 33 7s3.037 7 6.77 7c1.958 0 3.82-.877 5.107-2.406z"/><path d="M40 8h9V5h-9v3zm-37.211.352h6.422V14H12V0H9.21v5.648H2.79V0H0v14h2.789V8.352zM64.21 0v5.648h-6.42V0H55v14h2.79V8.352h6.42V14H67V0h-2.79zM22 14h3V0h-3v14zm23.785 17.827c-.237-.738-.558-1.733-1.261-2.54a4.316 4.316 0 0 0 1.153-2.948 4.331 4.331 0 0 0-3.874-4.312V22H39v2.713h2.364a1.623 1.623 0 0 1 .041 3.246H39v2.714l2.364.005c1.097 0 1.346.401 1.855 1.985.402 1.248 1.075 3.337 3.533 3.337H48v-2.714h-1.248c-.362 0-.497 0-.967-1.459zM3.643 47.442c0-.663-.464-1.115-1.124-1.115-.66 0-1.125.452-1.125 1.115 0 .664.465 1.116 1.125 1.116.66 0 1.124-.452 1.124-1.116zM5 45.135v4.567C5 51.317 3.782 52 2.546 52c-.966 0-1.774-.375-2.202-1.163l1.19-.712c.176.337.445.606 1.059.606.65 0 1.05-.346 1.05-1.029v-.442c-.307.394-.753.625-1.356.625C.967 49.885 0 48.769 0 47.442S.967 45 2.287 45c.603 0 1.05.23 1.356.625v-.49H5zM18.606 47.5c0-.71-.464-1.155-1.106-1.155-.64 0-1.105.445-1.105 1.155s.464 1.155 1.105 1.155c.642 0 1.106-.445 1.106-1.155zM20 45.133v4.734h-1.394v-.445c-.307.36-.763.578-1.384.578C16.004 50 15 48.91 15 47.5c0-1.411 1.004-2.5 2.222-2.5.621 0 1.077.218 1.384.578v-.445H20zm18 1.881V50h-1.6v-2.86c0-.486-.256-.798-.768-.798-.533 0-.832.34-.832.915V50h-1.6v-2.86c0-.486-.255-.798-.767-.798-.533 0-.832.34-.832.915V50H30v-4.864h1.6v.448c.246-.33.715-.584 1.43-.584.63 0 1.098.233 1.397.642.299-.389.79-.642 1.547-.642C37.2 45 38 45.798 38 47.014zm13.567-.006c-.154-.55-.586-.749-1.019-.749-.548 0-.914.265-1.048.748h2.067zm-.884 1.723c.393 0 .73-.151.923-.36l1.153.654c-.47.643-1.183.975-2.096.975C49.02 50 48 48.91 48 47.5s1.039-2.5 2.557-2.5C51.961 45 53 46.07 53 47.5c0 .199-.02.388-.058.568h-3.413c.183.492.624.663 1.154.663zM67 48.447C67 49.536 66.054 50 65.033 50c-.946 0-1.664-.36-2.033-1.127l1.229-.7c.123.36.388.558.804.558.34 0 .51-.104.51-.294 0-.52-2.326-.246-2.326-1.884 0-1.032.87-1.553 1.853-1.553.767 0 1.448.34 1.845 1.013l-1.21.654c-.133-.247-.323-.417-.635-.417-.245 0-.397.095-.397.265 0 .54 2.327.18 2.327 1.932z"/></g></svg>